<?xml version="1.0" encoding="UTF-8"?>
<svg version="1.1" xmlns="http://www.w3.org/2000/svg" width="160" height="160">
<path d="M0 0 C52.8 0 105.6 0 160 0 C160 52.8 160 105.6 160 160 C107.2 160 54.4 160 0 160 C0 107.2 0 54.4 0 0 Z " fill="#606060" transform="translate(0,0)"/>
<path d="M0 0 C52.8 0 105.6 0 160 0 C160 19.8 160 39.6 160 60 C146.8 60 133.6 60 120 60 C120 53.4 120 46.8 120 40 C87 40 54 40 20 40 C20 46.6 20 53.2 20 60 C13.4 60 6.8 60 0 60 C0 40.2 0 20.4 0 0 Z " fill="#3B3B3B" transform="translate(0,0)"/>
<path d="M0 0 C19.8 0 39.6 0 60 0 C60 13.2 60 26.4 60 40 C46.8 40 33.6 40 20 40 C20 46.6 20 53.2 20 60 C26.6 60 33.2 60 40 60 C40 66.6 40 73.2 40 80 C33.4 80 26.8 80 20 80 C20 93.2 20 106.4 20 120 C6.8 120 -6.4 120 -20 120 C-20 87 -20 54 -20 20 C-13.4 20 -6.8 20 0 20 C0 13.4 0 6.8 0 0 Z " fill="#B0775C" transform="translate(20,40)"/>
<path d="M0 0 C26.4 0 52.8 0 80 0 C80 13.2 80 26.4 80 40 C60.2 40 40.4 40 20 40 C20 46.6 20 53.2 20 60 C13.4 60 6.8 60 0 60 C0 40.2 0 20.4 0 0 Z " fill="#332411" transform="translate(0,0)"/>
<path d="M0 0 C6.6 0 13.2 0 20 0 C20 6.6 20 13.2 20 20 C26.6 20 33.2 20 40 20 C40 33.2 40 46.4 40 60 C13.6 60 -12.8 60 -40 60 C-40 46.8 -40 33.6 -40 20 C-33.4 20 -26.8 20 -20 20 C-20 26.6 -20 33.2 -20 40 C-13.4 40 -6.8 40 0 40 C0 26.8 0 13.6 0 0 Z " fill="#302F2F" transform="translate(80,100)"/>
<path d="M0 0 C13.2 0 26.4 0 40 0 C40 13.2 40 26.4 40 40 C26.8 40 13.6 40 0 40 C0 26.8 0 13.6 0 0 Z " fill="#915D3E" transform="translate(0,120)"/>
<path d="M0 0 C6.6 0 13.2 0 20 0 C20 13.2 20 26.4 20 40 C6.8 40 -6.4 40 -20 40 C-20 33.4 -20 26.8 -20 20 C-13.4 20 -6.8 20 0 20 C0 13.4 0 6.8 0 0 Z " fill="#595858" transform="translate(140,120)"/>
<path d="M0 0 C6.6 0 13.2 0 20 0 C20 6.6 20 13.2 20 20 C26.6 20 33.2 20 40 20 C40 26.6 40 33.2 40 40 C26.8 40 13.6 40 0 40 C0 26.8 0 13.6 0 0 Z " fill="#45210D" transform="translate(40,120)"/>
<path d="M0 0 C13.2 0 26.4 0 40 0 C40 13.2 40 26.4 40 40 C33.4 40 26.8 40 20 40 C20 33.4 20 26.8 20 20 C13.4 20 6.8 20 0 20 C0 13.4 0 6.8 0 0 Z " fill="#606060" transform="translate(100,100)"/>
<path d="M0 0 C6.6 0 13.2 0 20 0 C20 6.6 20 13.2 20 20 C26.6 20 33.2 20 40 20 C40 26.6 40 33.2 40 40 C26.8 40 13.6 40 0 40 C0 26.8 0 13.6 0 0 Z " fill="#AA7259" transform="translate(20,80)"/>
<path d="M0 0 C13.2 0 26.4 0 40 0 C40 13.2 40 26.4 40 40 C33.4 40 26.8 40 20 40 C20 33.4 20 26.8 20 20 C13.4 20 6.8 20 0 20 C0 13.4 0 6.8 0 0 Z " fill="#3F2A15" transform="translate(40,0)"/>
<path d="M0 0 C6.6 0 13.2 0 20 0 C20 13.2 20 26.4 20 40 C13.4 40 6.8 40 0 40 C0 26.8 0 13.6 0 0 Z " fill="#444444" transform="translate(80,100)"/>
<path d="M0 0 C6.6 0 13.2 0 20 0 C20 13.2 20 26.4 20 40 C13.4 40 6.8 40 0 40 C0 26.8 0 13.6 0 0 Z " fill="#774235" transform="translate(60,100)"/>
<path d="M0 0 C13.2 0 26.4 0 40 0 C40 6.6 40 13.2 40 20 C26.8 20 13.6 20 0 20 C0 13.4 0 6.8 0 0 Z " fill="#C90400" transform="translate(100,80)"/>
<path d="M0 0 C13.2 0 26.4 0 40 0 C40 6.6 40 13.2 40 20 C26.8 20 13.6 20 0 20 C0 13.4 0 6.8 0 0 Z " fill="#AA7259" transform="translate(40,80)"/>
<path d="M0 0 C6.6 0 13.2 0 20 0 C20 13.2 20 26.4 20 40 C13.4 40 6.8 40 0 40 C0 26.8 0 13.6 0 0 Z " fill="#271B0A" transform="translate(0,20)"/>
<path d="M0 0 C6.6 0 13.2 0 20 0 C20 6.6 20 13.2 20 20 C13.4 20 6.8 20 0 20 C0 13.4 0 6.8 0 0 Z " fill="#444444" transform="translate(120,140)"/>
<path d="M0 0 C6.6 0 13.2 0 20 0 C20 6.6 20 13.2 20 20 C13.4 20 6.8 20 0 20 C0 13.4 0 6.8 0 0 Z " fill="#815339" transform="translate(20,140)"/>
<path d="M0 0 C6.6 0 13.2 0 20 0 C20 6.6 20 13.2 20 20 C13.4 20 6.8 20 0 20 C0 13.4 0 6.8 0 0 Z " fill="#454444" transform="translate(140,120)"/>
<path d="M0 0 C6.6 0 13.2 0 20 0 C20 6.6 20 13.2 20 20 C13.4 20 6.8 20 0 20 C0 13.4 0 6.8 0 0 Z " fill="#595858" transform="translate(120,120)"/>
<path d="M0 0 C6.6 0 13.2 0 20 0 C20 6.6 20 13.2 20 20 C13.4 20 6.8 20 0 20 C0 13.4 0 6.8 0 0 Z " fill="#492510" transform="translate(40,120)"/>
<path d="M0 0 C6.6 0 13.2 0 20 0 C20 6.6 20 13.2 20 20 C13.4 20 6.8 20 0 20 C0 13.4 0 6.8 0 0 Z " fill="#575757" transform="translate(140,100)"/>
<path d="M0 0 C6.6 0 13.2 0 20 0 C20 6.6 20 13.2 20 20 C13.4 20 6.8 20 0 20 C0 13.4 0 6.8 0 0 Z " fill="#3E3E3E" transform="translate(80,100)"/>
<path d="M0 0 C6.6 0 13.2 0 20 0 C20 6.6 20 13.2 20 20 C13.4 20 6.8 20 0 20 C0 13.4 0 6.8 0 0 Z " fill="#6A4030" transform="translate(60,100)"/>
<path d="M0 0 C6.6 0 13.2 0 20 0 C20 6.6 20 13.2 20 20 C13.4 20 6.8 20 0 20 C0 13.4 0 6.8 0 0 Z " fill="#9B6349" transform="translate(0,100)"/>
<path d="M0 0 C6.6 0 13.2 0 20 0 C20 6.6 20 13.2 20 20 C13.4 20 6.8 20 0 20 C0 13.4 0 6.8 0 0 Z " fill="#585858" transform="translate(80,80)"/>
<path d="M0 0 C6.6 0 13.2 0 20 0 C20 6.6 20 13.2 20 20 C13.4 20 6.8 20 0 20 C0 13.4 0 6.8 0 0 Z " fill="#523D89" transform="translate(40,80)"/>
<path d="M0 0 C6.6 0 13.2 0 20 0 C20 6.6 20 13.2 20 20 C13.4 20 6.8 20 0 20 C0 13.4 0 6.8 0 0 Z " fill="#FFFFFF" transform="translate(20,80)"/>
<path d="M0 0 C6.6 0 13.2 0 20 0 C20 6.6 20 13.2 20 20 C13.4 20 6.8 20 0 20 C0 13.4 0 6.8 0 0 Z " fill="#AA7259" transform="translate(0,80)"/>
<path d="M0 0 C6.6 0 13.2 0 20 0 C20 6.6 20 13.2 20 20 C13.4 20 6.8 20 0 20 C0 13.4 0 6.8 0 0 Z " fill="#575757" transform="translate(140,60)"/>
<path d="M0 0 C6.6 0 13.2 0 20 0 C20 6.6 20 13.2 20 20 C13.4 20 6.8 20 0 20 C0 13.4 0 6.8 0 0 Z " fill="#9B6349" transform="translate(0,60)"/>
<path d="M0 0 C6.6 0 13.2 0 20 0 C20 6.6 20 13.2 20 20 C13.4 20 6.8 20 0 20 C0 13.4 0 6.8 0 0 Z " fill="#444444" transform="translate(120,40)"/>
<path d="M0 0 C6.6 0 13.2 0 20 0 C20 6.6 20 13.2 20 20 C13.4 20 6.8 20 0 20 C0 13.4 0 6.8 0 0 Z " fill="#B7836B" transform="translate(60,40)"/>
<path d="M0 0 C6.6 0 13.2 0 20 0 C20 6.6 20 13.2 20 20 C13.4 20 6.8 20 0 20 C0 13.4 0 6.8 0 0 Z " fill="#9B6349" transform="translate(20,40)"/>
</svg>
